<svg xmlns="http://www.w3.org/2000/svg" width="200" height="120" viewBox="-57.4 369.8 206.54546 120.0002" enable-background="new -57.4 369.8 284 40"><path d="M45.873 367.836c-11.38 0-20.655 9.246-20.655 20.568 0 11.323 9.274 20.568 20.655 20.568 11.38 0 20.654-9.245 20.654-20.568 0-11.322-9.273-20.568-20.654-20.568zm9.905 22.023v7.27h-4.215v-6.857c0-1.766-.632-2.908-2.107-2.908-1.16 0-1.897.83-2.213 1.558-.106.31-.106.623-.106 1.04v7.166h-4.215s.105-11.53 0-12.778h4.215v1.766c.527-.832 1.58-2.078 3.794-2.078 2.74 0 4.85 1.87 4.85 5.817zm-19.6-5.508h4.215v12.777h-4.215V384.35zm4.53-3.947c0 1.246-.947 2.18-2.423 2.18-1.475 0-2.318-.934-2.318-2.18 0-1.247.948-2.182 2.424-2.182 1.37 0 2.32.935 2.32 2.182z" opacity=".75" fill="#b2b2b2"/><path d="M45.873 409.076c-11.38 0-20.655 9.246-20.655 20.568 0 11.323 9.274 20.568 20.655 20.568 11.38 0 20.654-9.245 20.654-20.568 0-11.322-9.273-20.568-20.654-20.568zm9.905 22.023v7.27h-4.215v-6.857c0-1.766-.632-2.91-2.107-2.91-1.16 0-1.897.833-2.213 1.56-.106.31-.106.623-.106 1.038v7.17h-4.215s.105-11.53 0-12.778h4.215v1.766c.527-.832 1.58-2.08 3.794-2.08 2.74 0 4.85 1.87 4.85 5.82zm-19.6-5.508h4.215v12.777h-4.215V425.59zm4.53-3.947c0 1.246-.947 2.18-2.423 2.18-1.475 0-2.318-.934-2.318-2.18 0-1.247.948-2.182 2.424-2.182 1.37 0 2.32.935 2.32 2.182z" opacity=".75" fill="#e0e0e0"/><path d="M45.873 450.628c-11.38 0-20.655 9.245-20.655 20.568 0 11.323 9.274 20.568 20.655 20.568 11.38 0 20.654-9.245 20.654-20.568 0-11.323-9.273-20.568-20.654-20.568zm9.905 22.022v7.272h-4.215v-6.856c0-1.766-.632-2.91-2.107-2.91-1.16 0-1.897.832-2.213 1.56-.106.31-.106.622-.106 1.038v7.168h-4.215s.105-11.53 0-12.777h4.215v1.765c.527-.83 1.58-2.077 3.794-2.077 2.74 0 4.85 1.87 4.85 5.817zm-19.6-5.505h4.215v12.777h-4.215v-12.777zm4.53-3.948c0 1.247-.947 2.182-2.423 2.182-1.475 0-2.318-.937-2.318-2.184 0-1.246.948-2.18 2.424-2.18 1.37 0 2.32.934 2.32 2.18z" opacity=".75" fill="#f9f9f9"/><g opacity=".75" fill="#b2b2b2"><path d="M125.777 396.448v1.137c-.105.413-.733.723-.943 0v-5.89h-1.677v6.095c0 .414 0 .93.42 1.24.733.517 2.095-.103 2.515-.826v.93h1.362v-7.438h-1.677v4.752zM119.908 390.353v8.884h1.677v-8.78h1.887v-1.343h-5.24v1.24zM128.083 383.432c.42 0 .733-.31.733-.826v-4.132c0-.413-.314-.826-.733-.826-.42 0-.734.31-.734.826v4.132c0 .517.313.826.732.826zM130.074 392.006v-2.892h-1.677v10.02h1.363l.104-.62c1.677 1.55 2.83.517 2.83-1.446v-3.925c0-1.447-1.153-2.376-2.62-1.137zm1.362 5.372c0 .31-.314.62-.733.62-.42 0-.734-.31-.734-.62v-4.34c0-.31.313-.618.732-.618.42 0 .733.31.733.62v4.338zM136.572 396.55v.932c0 .414-.315.62-.63.62h-.21c-.418 0-.628-.31-.628-.62v-1.755h2.83v-1.033c0-.723 0-1.55-.105-1.963-.21-1.446-2.203-1.652-3.146-.93-.314.207-.524.517-.733.93-.104.414-.21.93-.21 1.653v2.376c0 3.82 4.717 3.305 4.088 0l-1.258-.208zM135 393.453c0-.413.314-.723.733-.723h.105c.42 0 .734.31.734.722v.93H135v-.93zM128.397 367.937c-11.423 0-20.645 9.194-20.645 20.66 0 11.467 9.222 20.66 20.645 20.66s20.646-9.193 20.646-20.66c0-11.466-9.223-20.66-20.646-20.66zm2.935 8.78h1.467v6.096c0 .31.312.62.627.62.314 0 .628-.31.628-.62v-6.095h1.468v7.747h-1.782v-.62c-.104.31-.313.414-.42.62-.21.104-.417.207-.627.207-.314 0-.524-.103-.63-.207-.208-.103-.313-.31-.418-.516-.105-.21-.105-.415-.105-.62v-1.345l-.208-5.268zm-4.507.104c.315-.204.734-.41 1.258-.41.42 0 .733.102 1.048.206.316.206.526.413.735.62.21.31.315.516.315.826.104.31.104.724.104 1.24v1.963c0 .723 0 1.24-.105 1.55l-.317.93c-.21.31-.42.516-.733.62-.314.102-.628.206-.942.206-.42 0-.734-.104-1.048-.207-.315-.103-.524-.31-.63-.516-.21-.207-.314-.517-.314-.827-.104-.31-.104-.827-.104-1.55v-2.066c0-.723.104-1.343.21-1.756 0-.207.21-.62.523-.827zm-4.82-3.2l1.047 3.82 1.048-3.82h1.887l-1.99 5.06v5.993h-1.678v-5.99l-2.203-5.166 1.886.103zm18.13 24.69c0 1.96-1.782 3.614-3.878 3.614h-15.825c-2.096 0-3.877-1.653-3.877-3.615v-8.37c0-1.96 1.78-3.614 3.877-3.614h15.825c2.096 0 3.878 1.653 3.878 3.615v8.37z"/></g><g opacity=".75" fill="#e0e0e0"><path d="M125.777 437.757v1.136c-.105.414-.733.724-.943 0v-5.888h-1.677v6.095c0 .413 0 .93.42 1.24.733.516 2.095-.104 2.515-.827v.93h1.362v-7.438h-1.677v4.752zM123.472 430.423h-5.24v1.24h1.676v8.883h1.677v-8.78h1.887zM128.083 424.74c.42 0 .733-.31.733-.825v-4.132c0-.413-.314-.826-.733-.826-.42 0-.734.31-.734.826v4.132c0 .516.313.826.732.826zM130.074 433.315v-2.892h-1.677v10.02h1.363l.104-.62c1.677 1.55 2.83.517 2.83-1.446v-3.925c0-1.447-1.153-2.376-2.62-1.137zm1.362 5.372c0 .31-.314.62-.733.62-.42 0-.734-.31-.734-.62v-4.34c0-.31.313-.618.732-.618.42-.003.733.307.733.617v4.34zM136.572 437.86v.93c0 .413-.315.62-.63.62h-.21c-.418 0-.628-.31-.628-.62v-1.756h2.83V436c0-.722 0-1.548-.105-1.962-.21-1.446-2.203-1.652-3.146-.93-.314.207-.524.517-.733.93-.104.414-.21.93-.21 1.653v2.378c0 3.822 4.717 3.306 4.088 0l-1.258-.207zm-1.572-3.1c0-.412.314-.722.733-.722h.105c.42 0 .734.31.734.723v.93H135v-.93zM128.397 409.246c-11.423 0-20.645 9.194-20.645 20.66 0 11.467 9.222 20.66 20.645 20.66s20.646-9.193 20.646-20.66c0-11.466-9.223-20.66-20.646-20.66zm2.935 8.78h1.467v6.096c0 .31.312.62.627.62.314 0 .628-.31.628-.62v-6.095h1.468v7.747h-1.782v-.62c-.104.31-.313.414-.42.62-.21.104-.417.207-.627.207-.314 0-.524-.1-.63-.205-.208-.103-.313-.31-.418-.516-.105-.208-.105-.414-.105-.62v-1.344l-.208-5.268zm-4.507.104c.315-.206.734-.413 1.258-.413.42 0 .733.103 1.048.207.316.206.526.413.735.62.21.31.315.516.315.826.104.31.104.723.104 1.24v1.962c0 .723 0 1.24-.105 1.55l-.317.93c-.21.31-.42.516-.733.62-.314.102-.628.206-.942.206-.42 0-.734-.104-1.048-.207-.315-.1-.524-.31-.63-.514-.21-.207-.314-.517-.314-.827-.104-.31-.104-.827-.104-1.55v-2.066c0-.723.104-1.343.21-1.756 0-.207.21-.62.523-.827zm-4.82-3.202l1.047 3.822 1.048-3.822h1.887l-1.99 5.062v5.99h-1.678v-5.99l-2.203-5.165 1.886.103zm18.13 24.69c0 1.96-1.782 3.614-3.878 3.614h-15.825c-2.096 0-3.877-1.653-3.877-3.615v-8.368c0-1.964 1.78-3.617 3.877-3.617h15.825c2.096 0 3.878 1.653 3.878 3.615v8.367z"/></g><g opacity=".75" fill="#f9f9f9"><path d="M125.777 479.066v1.137c-.105.413-.733.723-.943 0v-5.89h-1.677v6.097c0 .412 0 .93.42 1.24.733.515 2.095-.105 2.515-.828v.93h1.362v-7.438h-1.677v4.752zM121.585 473.075h1.887v-1.343h-5.24v1.24h1.676v8.883h1.677zM128.083 466.05c.42 0 .733-.31.733-.826v-4.132c0-.413-.314-.826-.733-.826-.42 0-.734.31-.734.826v4.132c0 .517.313.826.732.826zM130.074 474.624v-2.892h-1.677v10.02h1.363l.104-.62c1.677 1.55 2.83.517 2.83-1.446v-3.925c0-1.445-1.153-2.374-2.62-1.135zm1.362 5.372c0 .31-.314.62-.733.62-.42 0-.734-.31-.734-.62v-4.34c0-.31.313-.618.732-.618.42 0 .733.31.733.62v4.338zM136.572 479.17v.928c0 .412-.315.62-.63.62h-.21c-.418 0-.628-.31-.628-.62v-1.756h2.83v-1.033c0-.724 0-1.55-.105-1.964-.21-1.446-2.203-1.652-3.146-.93-.314.207-.524.517-.733.93-.104.414-.21.93-.21 1.653v2.375c0 3.822 4.717 3.306 4.088 0l-1.258-.207zm-1.572-3.1c0-.413.314-.723.733-.723h.105c.42 0 .734.31.734.724v.93H135v-.93zM128.397 450.555c-11.423 0-20.645 9.194-20.645 20.66 0 11.467 9.222 20.66 20.645 20.66s20.646-9.193 20.646-20.66c0-11.466-9.223-20.66-20.646-20.66zm2.935 8.78h1.467v6.096c0 .31.312.62.627.62.314 0 .628-.31.628-.62v-6.093h1.468v7.747h-1.782v-.62c-.104.31-.313.414-.42.62-.21.104-.417.207-.627.207-.314 0-.524-.102-.63-.206-.208-.103-.313-.31-.418-.516-.105-.207-.105-.413-.105-.62v-1.343l-.208-5.268zm-4.507.104c.315-.208.734-.415 1.258-.415.42 0 .733.103 1.048.207.316.206.526.413.735.62.21.31.315.516.315.826.104.31.104.722.104 1.238v1.963c0 .723 0 1.24-.105 1.55l-.317.93c-.21.31-.42.516-.733.62-.314.102-.628.206-.942.206-.42 0-.734-.104-1.048-.207-.315-.104-.524-.31-.63-.517-.21-.207-.314-.517-.314-.827-.104-.31-.104-.826-.104-1.55v-2.065c0-.722.104-1.342.21-1.755 0-.207.21-.62.523-.827zm-4.82-3.204l1.047 3.822 1.048-3.823h1.887l-1.99 5.062v5.99h-1.678v-5.99l-2.203-5.166 1.886.104zm18.13 24.69c0 1.96-1.782 3.614-3.878 3.614h-15.825c-2.096 0-3.877-1.652-3.877-3.614v-8.368c0-1.962 1.78-3.615 3.877-3.615h15.825c2.096 0 3.878 1.653 3.878 3.615v8.368z"/></g><path d="M87.182 367.836c-11.428 0-20.655 9.222-20.655 20.62 0 11.398 9.227 20.62 20.655 20.62s20.654-9.222 20.654-20.62c0-11.294-9.226-20.62-20.654-20.62zm8.807 21.14c-1.89 7.666-14.68 10.982-20.55 3.003 2.2 2.174 6.184 2.382 8.7-.21-1.468.208-2.516-1.242-.734-1.97-1.572.21-2.516-.723-2.83-1.45.42-.413.838-.62 1.572-.62-1.783-.414-2.412-1.243-2.622-2.28.524-.103 1.05-.207 1.468-.207-1.573-.83-2.097-1.968-1.992-2.9 2.726 1.035 4.508 1.864 5.976 2.59.524.31 1.153.828 1.782 1.45.84-2.176 1.888-4.455 3.67-5.595 0 .206-.21.517-.315.724.525-.414 1.154-.725 1.783-.83-.105.52-.84.83-1.258.934.314-.104 2.097-.933 2.306-.415.21.52-1.153.727-1.468.83-.21.104-.314.104-.524.207 2.202-.208 4.3 1.554 4.928 3.833 0 .207.105.31.105.518.838.312 2.305 0 2.725-.31-.315.83-1.258 1.45-2.516 1.555.628.31 1.78.414 2.62.31-.525.31-1.363.83-2.83.83z" opacity=".75" fill="#b2b2b2"/><path d="M87.182 409.077c-11.428 0-20.655 9.22-20.655 20.62 0 11.397 9.227 20.62 20.655 20.62s20.654-9.223 20.654-20.62c0-11.295-9.226-20.62-20.654-20.62zm8.807 21.138c-1.89 7.667-14.68 10.983-20.55 3.004 2.2 2.174 6.184 2.382 8.7-.21-1.468.208-2.516-1.242-.734-1.967-1.572.207-2.516-.726-2.83-1.45.42-.416.838-.623 1.572-.623-1.783-.413-2.412-1.242-2.622-2.278.524-.104 1.05-.208 1.468-.208-1.573-.83-2.097-1.968-1.992-2.9 2.726 1.035 4.508 1.864 5.976 2.59.524.31 1.153.828 1.782 1.45.84-2.176 1.888-4.455 3.67-5.595 0 .205-.21.516-.315.723.525-.414 1.154-.725 1.783-.83-.105.52-.84.83-1.258.934.314-.104 2.097-.933 2.306-.415.21.518-1.153.726-1.468.83-.21.103-.314.103-.524.206 2.202-.208 4.3 1.554 4.928 3.833 0 .21.105.31.105.52.838.31 2.305 0 2.725-.31-.315.83-1.258 1.45-2.516 1.554.628.31 1.78.414 2.62.31-.525.31-1.363.83-2.83.83z" opacity=".75" fill="#e0e0e0"/><path d="M87.182 450.524c-11.428 0-20.655 9.222-20.655 20.62 0 11.398 9.227 20.62 20.655 20.62s20.654-9.222 20.654-20.62c0-11.295-9.226-20.62-20.654-20.62zm8.807 21.138c-1.89 7.668-14.68 10.983-20.55 3.005 2.2 2.176 6.184 2.383 8.7-.207-1.468.207-2.516-1.244-.734-1.97-1.572.208-2.516-.725-2.83-1.45.42-.414.838-.622 1.572-.622-1.783-.414-2.412-1.243-2.622-2.28.524-.103 1.05-.206 1.468-.206-1.573-.83-2.097-1.97-1.992-2.902 2.726 1.036 4.508 1.865 5.976 2.59.524.312 1.153.83 1.782 1.45.84-2.175 1.888-4.454 3.67-5.594 0 .207-.21.518-.315.725.525-.412 1.154-.723 1.783-.827-.105.52-.84.83-1.258.933.314-.104 2.097-.933 2.306-.414.21.52-1.153.726-1.468.83-.21.103-.314.103-.524.207 2.202-.21 4.3 1.553 4.928 3.833 0 .208.105.31.105.52.838.31 2.305 0 2.725-.312-.315.83-1.258 1.45-2.516 1.555.628.31 1.78.415 2.62.31-.525.312-1.363.83-2.83.83z" opacity=".75" fill="#f9f9f9"/><path d="M4.563 367.836c-11.333 0-20.654 9.253-20.654 20.586 0 11.332 9.213 20.48 20.652 20.48 11.44 0 20.654-9.148 20.654-20.48.106-11.333-9.215-20.586-20.654-20.586zM10.6 380H7.74c-.53 0-1.164.624-1.164 1.04v2.91H10.6c-.21 2.288-.53 4.368-.53 4.368h-3.6v12.89H1.174v-12.89h-2.542v-4.367h2.542v-3.533c0-.623-.106-4.99 5.402-4.99h3.92c.105 1.975.105 4.055.105 4.574z" opacity=".75" fill="#b2b2b2"/><path d="M4.563 409.11c-11.333 0-20.654 9.254-20.654 20.586 0 11.332 9.213 20.48 20.652 20.48 11.44 0 20.654-9.148 20.654-20.48.106-11.332-9.215-20.585-20.654-20.585zm6.038 12.165H7.74c-.53 0-1.164.624-1.164 1.04v2.91H10.6c-.21 2.288-.53 4.367-.53 4.367h-3.6v12.892H1.174v-12.892h-2.542v-4.366h2.542v-3.535c0-.622-.106-4.99 5.402-4.99h3.92c.105 1.977.105 4.056.105 4.576z" opacity=".75" fill="#e0e0e0"/><path d="M4.563 450.697c-11.333 0-20.654 9.253-20.654 20.585 0 11.333 9.213 20.482 20.652 20.482 11.44 0 20.654-9.15 20.654-20.482.106-11.332-9.215-20.585-20.654-20.585zM10.6 462.86H7.74c-.53 0-1.164.625-1.164 1.04v2.912H10.6c-.21 2.287-.53 4.367-.53 4.367h-3.6v12.89H1.174v-12.89h-2.542v-4.37h2.542v-3.534c0-.624-.106-4.99 5.402-4.99h3.92c.105 1.975.105 4.054.105 4.574z" opacity=".75" fill="#f9f9f9"/><path d="M-36.328 384.257c0 .62-.104 1.652-.835 2.375-.52.516-1.46.93-2.19.93-2.817 0-4.07-3.615-4.07-5.887 0-.826.21-1.756.732-2.48.52-.618 1.46-1.03 2.293-1.03 2.712 0 4.068 3.716 4.068 6.092zm-2.504 8.57c-.313 0-2.086.105-3.442.518-.73.31-2.817 1.032-2.817 3.408 0 2.375 2.293 4.027 5.736 4.027 3.13 0 4.798-1.55 4.798-3.51 0-1.653-1.043-2.583-3.547-4.338-.208-.104-.417-.104-.73-.104zm22.74-4.336c0 11.36-9.283 20.656-20.653 20.656S-57.4 399.85-57.4 388.49s9.284-20.654 20.655-20.654c11.474 0 20.654 9.192 20.654 20.655zm-19.61-10.222h1.982l2.086-1.136h-6.78c-1.774 0-3.964.31-5.842 1.757-1.46 1.24-2.086 2.89-2.086 4.44 0 2.58 1.982 5.163 5.424 5.163.313 0 .73 0 1.043-.102-.21.414-.313.724-.313 1.24 0 1.033.522 1.65.94 2.27-1.46.105-4.278.31-6.26 1.55-1.982 1.137-2.504 2.79-2.504 4.03 0 2.477 2.295 4.646 7.094 4.646 5.633 0 8.658-3.098 8.658-6.196 0-2.272-1.356-3.408-2.712-4.544l-1.148-.93c-.312-.31-.834-.723-.834-1.446s.522-1.136.94-1.652c1.355-1.033 2.71-2.272 2.71-4.647-.103-2.48-1.668-3.82-2.398-4.44zm8.554-.723v3.51h-3.338v1.24h3.338v3.512h1.25v-3.51h3.34v-1.24h-3.34v-3.512h-1.25z" opacity=".75" fill="#b2b2b2"/><path d="M-36.328 425.566c0 .62-.105 1.652-.835 2.375-.52.52-1.46.93-2.19.93-2.817 0-4.07-3.613-4.07-5.885 0-.826.21-1.756.732-2.478.52-.62 1.46-1.033 2.292-1.033 2.713 0 4.07 3.718 4.07 6.093zm-2.504 8.572c-.313 0-2.086.103-3.442.516-.73.31-2.817 1.033-2.817 3.408s2.293 4.028 5.736 4.028c3.13 0 4.798-1.55 4.798-3.512 0-1.652-1.043-2.582-3.547-4.337-.208-.1-.417-.1-.73-.1zm22.74-4.338c0 11.36-9.283 20.655-20.653 20.655S-57.4 441.16-57.4 429.8c0-11.36 9.284-20.654 20.655-20.654 11.474 0 20.654 9.19 20.654 20.654zm-19.61-10.224h1.982l2.086-1.136h-6.78c-1.774 0-3.965.31-5.842 1.756-1.46 1.24-2.087 2.89-2.087 4.44 0 2.582 1.982 5.164 5.425 5.164.313 0 .73 0 1.043-.103-.21.413-.313.723-.313 1.24 0 1.032.522 1.65.94 2.27-1.46.104-4.278.31-6.26 1.55-1.982 1.136-2.504 2.79-2.504 4.028 0 2.478 2.295 4.647 7.094 4.647 5.633 0 8.658-3.098 8.658-6.196 0-2.272-1.356-3.408-2.712-4.544l-1.148-.93c-.313-.31-.834-.723-.834-1.446 0-.722.52-1.136.94-1.652 1.355-1.033 2.71-2.272 2.71-4.647-.103-2.48-1.668-3.82-2.398-4.44zm8.554-.723v3.51h-3.34v1.24h3.34v3.512h1.25v-3.51h3.34v-1.24h-3.34v-3.512h-1.25z" opacity=".75" fill="#e0e0e0"/><path d="M-36.328 466.875c0 .62-.105 1.652-.835 2.375-.52.517-1.46.93-2.19.93-2.817 0-4.07-3.615-4.07-5.887 0-.826.21-1.755.732-2.478.52-.62 1.46-1.033 2.292-1.033 2.713 0 4.07 3.718 4.07 6.093zm-2.504 8.572c-.313 0-2.086.103-3.442.516-.73.31-2.817 1.033-2.817 3.408 0 2.377 2.293 4.03 5.736 4.03 3.13 0 4.798-1.55 4.798-3.512 0-1.652-1.043-2.58-3.547-4.337-.208-.102-.417-.102-.73-.102zm22.74-4.338c0 11.36-9.283 20.653-20.653 20.653S-57.4 482.47-57.4 471.11s9.284-20.655 20.655-20.655c11.474 0 20.654 9.19 20.654 20.654zm-19.61-10.226h1.982l2.086-1.136h-6.78c-1.774 0-3.965.31-5.842 1.755-1.46 1.24-2.087 2.892-2.087 4.44 0 2.582 1.982 5.164 5.425 5.164.313 0 .73 0 1.043-.104-.21.413-.313.723-.313 1.24 0 1.032.522 1.652.94 2.27-1.46.105-4.278.31-6.26 1.55-1.982 1.136-2.504 2.79-2.504 4.028 0 2.48 2.295 4.648 7.094 4.648 5.633 0 8.658-3.097 8.658-6.195 0-2.272-1.356-3.408-2.712-4.544l-1.148-.93c-.313-.31-.834-.72-.834-1.445 0-.723.52-1.136.94-1.653 1.355-1.032 2.71-2.272 2.71-4.647-.103-2.48-1.668-3.82-2.398-4.44zm8.554-.723v3.513h-3.34v1.24h3.34v3.51h1.25v-3.51h3.34v-1.24h-3.34v-3.512h-1.25z" opacity=".75" fill="#f9f9f9"/></svg>